<mxfile host="app.diagrams.net" modified="2024-01-10T18:02:12.111Z" agent="Mozilla/5.0 (Macintosh; Intel Mac OS X 10_15_7) AppleWebKit/537.36 (KHTML, like Gecko) Chrome/120.0.0.0 Safari/537.36 Edg/120.0.0.0" etag="EvR_B0EIpz9tHUwix4OP" version="22.1.18" type="github">
  <diagram name="Page-1" id="YBGdI7vRCxAPK5MRPdSH">
    <mxGraphModel dx="1226" dy="1151" grid="1" gridSize="10" guides="1" tooltips="1" connect="1" arrows="1" fold="1" page="1" pageScale="1" pageWidth="850" pageHeight="1100" math="0" shadow="0">
      <root>
        <mxCell id="0" />
        <mxCell id="1" parent="0" />
        <mxCell id="XuDMsRqY3DkTDK-J6pZJ-1" value="" style="rounded=1;whiteSpace=wrap;html=1;" vertex="1" parent="1">
          <mxGeometry x="40" y="260" width="180" height="170" as="geometry" />
        </mxCell>
        <mxCell id="XuDMsRqY3DkTDK-J6pZJ-2" value="" style="rounded=1;whiteSpace=wrap;html=1;" vertex="1" parent="1">
          <mxGeometry x="40" y="460" width="180" height="170" as="geometry" />
        </mxCell>
        <mxCell id="XuDMsRqY3DkTDK-J6pZJ-3" value="" style="rounded=1;whiteSpace=wrap;html=1;" vertex="1" parent="1">
          <mxGeometry x="340" y="260" width="180" height="170" as="geometry" />
        </mxCell>
        <mxCell id="XuDMsRqY3DkTDK-J6pZJ-4" value="" style="rounded=1;whiteSpace=wrap;html=1;" vertex="1" parent="1">
          <mxGeometry x="660" y="260" width="180" height="170" as="geometry" />
        </mxCell>
        <mxCell id="XuDMsRqY3DkTDK-J6pZJ-5" value="" style="rounded=1;whiteSpace=wrap;html=1;" vertex="1" parent="1">
          <mxGeometry x="335" y="460" width="180" height="170" as="geometry" />
        </mxCell>
        <mxCell id="XuDMsRqY3DkTDK-J6pZJ-6" value="" style="rounded=1;whiteSpace=wrap;html=1;" vertex="1" parent="1">
          <mxGeometry x="660" y="460" width="180" height="170" as="geometry" />
        </mxCell>
      </root>
    </mxGraphModel>
  </diagram>
</mxfile>
